<svg version="1.1" id="Layer_1" x="0px" y="0px" width="24px" height="24px"
	 viewBox="0 0 24 24" enable-background="new 0 0 24 24" xml:space="preserve">
<metadata>
	<sfw  xmlns="&ns_sfw;">
		<slices></slices>
		<sliceSourceBounds  width="505" height="984" x="0" y="-552"></sliceSourceBounds>
	</sfw>
</metadata>
<g>
	<g>
		<g>
			<path d="M14,21c-0.1,0-0.3,0-0.4-0.1C13.2,20.8,13,20.4,13,20v-5c0-0.6,0.4-1,1-1s1,0.4,1,1v2.8l6.5-5.8L15,6.2V9
				c0,0.6-0.4,1-1,1s-1-0.4-1-1V4c0-0.4,0.2-0.8,0.6-0.9c0.4-0.2,0.8-0.1,1.1,0.2l9,8c0.2,0.2,0.3,0.5,0.3,0.7s-0.1,0.6-0.3,0.7
				l-9,8C14.5,20.9,14.2,21,14,21z"/>
		</g>
	</g>
	<g>
		<g>
			<path d="M1,21c-0.1,0-0.1,0-0.2,0C0.3,20.9,0,20.5,0,20C0,8.1,13.9,8,14,8c0.6,0,1,0.4,1,1c0,0.6-0.4,1-1,1
				c-0.4,0-9.5,0.1-11.6,6.9C4.4,15.5,7.9,14,14,14c0.6,0,1,0.4,1,1s-0.4,1-1,1C3.9,16,1.9,20.3,1.9,20.4C1.8,20.8,1.4,21,1,21z"/>
		</g>
	</g>
</g>
</svg>
